<svg width="96" height="30" viewBox="0 0 96 30" fill="none" xmlns="http://www.w3.org/2000/svg">
<path d="M16.413 12.76L11.005 13.72C11.197 11.1173 10.525 9.77333 8.989 9.688C7.92233 9.77333 7.389 10.4133 7.389 11.608C7.389 12.376 7.66633 13.1013 8.221 13.784C8.88233 14.552 9.81033 15.1067 11.005 15.448C12.989 16.024 14.429 17.1333 15.325 18.776C16.0077 20.0347 16.317 21.4853 16.253 23.128C16.189 24.5573 15.4743 25.9333 14.109 27.256C12.5943 28.6853 10.877 29.3787 8.957 29.336C6.653 29.272 3.84767 27.4907 0.541 23.992L4.349 19.64C5.39433 22.776 6.96233 24.3973 9.053 24.504C9.885 24.5253 10.5463 24.3653 11.037 24.024C11.5277 23.6827 11.773 23.2453 11.773 22.712C11.773 22.0293 11.389 21.368 10.621 20.728C9.74633 19.9813 8.509 19.3947 6.909 18.968C5.71433 18.648 4.77567 17.8587 4.093 16.6C3.49567 15.448 3.197 14.104 3.197 12.568C3.197 10.7547 3.59167 9.18667 4.381 7.864C5.277 6.41333 6.461 5.63467 7.933 5.528C9.29833 5.50667 10.5143 5.73067 11.581 6.2C14.141 7.288 15.7517 9.47467 16.413 12.76ZM18.8778 6.008C21.3524 5.41067 23.5818 5.112 25.5658 5.112C29.2351 5.112 31.9338 6.104 33.6618 8.088C34.3658 8.92 34.8564 9.912 35.1338 11.064C35.3258 11.96 35.4218 12.9307 35.4218 13.976C35.4218 16.472 34.8244 18.52 33.6298 20.12C31.9444 22.4027 29.1711 23.5867 25.3098 23.672L25.9178 28.12L20.5098 28.792L18.8778 6.008ZM23.6138 9.656L24.7338 19.352C27.6564 19.2453 29.6191 18.2427 30.6218 16.344C31.0271 15.5547 31.2404 14.616 31.2618 13.528C30.6218 10.84 28.7124 9.496 25.5338 9.496C24.9364 9.496 24.2964 9.54933 23.6138 9.656ZM44.6038 5.432L43.9318 27.32L38.6838 27L38.4598 6.168L44.6038 5.432ZM62.5213 28.792L56.2813 28.024L56.5053 26.328C53.5826 26.392 51.2039 26.104 49.3693 25.464C46.7026 24.5253 45.4759 22.904 45.6893 20.6C45.9879 17.3787 48.4199 15.768 52.9853 15.768C54.4786 15.768 56.0466 15.9387 57.6893 16.28C57.7319 14.7867 57.6039 13.5707 57.3053 12.632C56.8786 11.352 56.1426 10.7227 55.0973 10.744C53.4759 10.7867 52.6759 12.1307 52.6973 14.776L47.7693 14.36C47.9613 11.992 48.4946 10.072 49.3693 8.6C50.5853 6.46667 52.4199 5.4 54.8733 5.4C57.5399 5.4 59.5239 6.57333 60.8253 8.92C61.7213 10.5413 62.1906 12.4613 62.2333 14.68L62.5213 28.792ZM57.2733 19.608C55.8226 19.3093 54.5106 19.16 53.3373 19.16C51.2253 19.16 50.1479 19.6933 50.1053 20.76C50.0413 22.1467 51.2146 22.84 53.6253 22.84C54.6919 22.84 55.8439 22.712 57.0813 22.456L57.2733 19.608ZM64.7923 20.728L70.2643 20.152C70.1789 20.6213 70.1363 21.048 70.1363 21.432C70.1363 23.224 70.7549 24.184 71.9923 24.312C72.5256 24.312 72.9416 24.12 73.2403 23.736C73.5603 23.352 73.7203 22.8827 73.7203 22.328C73.7203 21.5813 73.4643 20.8667 72.9523 20.184C72.3549 19.416 71.4909 18.8293 70.3603 18.424C67.2029 17.272 65.6243 14.9573 65.6243 11.48C65.6243 11.1173 65.6456 10.7653 65.6883 10.424C65.8376 8.97333 66.6483 7.64 68.1203 6.424C69.7203 5.10133 71.4803 4.536 73.4003 4.728C75.6829 4.94133 78.3496 6.91467 81.4003 10.648L77.3043 14.712C76.4936 11.512 75.0429 9.784 72.9523 9.528C72.0989 9.44267 71.4163 9.57067 70.9043 9.912C70.3923 10.232 70.1363 10.68 70.1363 11.256C70.1363 11.9173 70.4883 12.5893 71.1923 13.272C72.0029 14.04 73.1763 14.68 74.7123 15.192C75.7789 15.576 76.6109 16.3333 77.2083 17.464C77.7416 18.5093 78.0083 19.736 78.0083 21.144C78.0083 23.064 77.5496 24.7387 76.6323 26.168C75.6296 27.7467 74.3389 28.536 72.7603 28.536C71.3949 28.4507 70.1896 28.152 69.1443 27.64C66.6696 26.36 65.2189 24.056 64.7923 20.728ZM95.865 29.336L89.817 29.752C89.881 24.3547 89.785 20.3653 89.529 17.784C89.3583 16.1627 88.889 15.352 88.121 15.352C87.673 15.352 87.2463 15.608 86.841 16.12C86.457 16.632 86.2437 17.208 86.201 17.848C86.1157 19.2133 86.297 22.3387 86.745 27.224L81.241 27.32L79.993 1.4L86.201 0.279999L85.561 10.936C87.1183 9.912 88.505 9.4 89.721 9.4C92.1317 9.4 93.8597 11.3733 94.905 15.32C95.6303 18.008 95.993 21.4213 95.993 25.56C95.993 26.9467 95.9503 28.2053 95.865 29.336Z" fill="white"/>
</svg>
