<svg width="18" height="16" viewBox="0 0 18 16" fill="none" xmlns="http://www.w3.org/2000/svg">
<g clip-path="url(#clip0_26_1258)">
<path d="M17.719 2.50369C17.0672 2.79289 16.3672 2.9884 15.6312 3.07628C16.3824 2.62648 16.9578 1.9137 17.2295 1.06537C16.516 1.48917 15.7351 1.78753 14.9207 1.94748C14.258 1.24108 13.313 0.800049 12.2675 0.800049C10.2607 0.800049 8.63311 2.42693 8.63311 4.43493C8.63311 4.71944 8.66516 4.99701 8.72676 5.26351C5.70575 5.11168 3.02744 3.66458 1.2347 1.46572C0.921659 2.00275 0.742478 2.62713 0.742478 3.29332C0.742478 4.55424 1.38427 5.66677 2.35946 6.31846C1.78217 6.30057 1.21754 6.14474 0.712779 5.86401V5.90994C0.712779 7.67125 1.96554 9.13988 3.6285 9.47389C3.32302 9.55759 3.00243 9.60132 2.67076 9.60132C2.43627 9.60132 2.20876 9.57912 1.98651 9.53732C2.44908 10.9809 3.7915 12.0318 5.38164 12.0615C4.13761 13.0367 2.57008 13.618 0.867562 13.618C0.574324 13.618 0.284511 13.6005 0 13.5662C1.60887 14.5978 3.51914 15.2 5.57194 15.2C12.2576 15.2 15.914 9.66128 15.914 4.85799C15.914 4.7003 15.9105 4.54378 15.9029 4.38783C16.6153 3.87255 17.2303 3.23455 17.719 2.50369Z" fill="#131313"/>
</g>
<defs>
<clipPath id="clip0_26_1258">
<rect width="18" height="14.4" fill="white" transform="translate(0 0.800049)"/>
</clipPath>
</defs>
</svg>
