<svg width="18" height="12" viewBox="0 0 18 12" fill="none" xmlns="http://www.w3.org/2000/svg">
<path d="M17.1767 1.87759C16.9804 1.13853 16.4021 0.556469 15.6678 0.358938C14.3369 0 9 0 9 0C9 0 3.66313 0 2.33216 0.358938C1.59788 0.5565 1.01957 1.13853 0.823285 1.87759C0.46666 3.21719 0.46666 6.01213 0.46666 6.01213C0.46666 6.01213 0.46666 8.80706 0.823285 10.1467C1.01957 10.8857 1.59788 11.4435 2.33216 11.6411C3.66313 12 9 12 9 12C9 12 14.3369 12 15.6678 11.6411C16.4021 11.4435 16.9804 10.8857 17.1767 10.1467C17.5333 8.80706 17.5333 6.01213 17.5333 6.01213C17.5333 6.01213 17.5333 3.21719 17.1767 1.87759ZM7.25453 8.54972V3.47453L11.7151 6.01219L7.25453 8.54972Z" fill="#131313"/>
</svg>
